<?xml version="1.0" encoding="UTF-8"?>
<svg width="1024px" height="416px" viewBox="0 0 1024 416" version="1.1" xmlns="http://www.w3.org/2000/svg" xmlns:xlink="http://www.w3.org/1999/xlink">
    <title>dark</title>
    <g id="dark" stroke="none" stroke-width="1" fill="none" fill-rule="evenodd">
        <path d="M113,280 L799.131794,280 C802.997787,280 806.131794,283.134007 806.131794,287 L806.131794,297 C806.131794,300.865993 802.997787,304 799.131794,304 L113,304 C109.134007,304 106,300.865993 106,297 L106,287 C106,283.134007 109.134007,280 113,280 Z" id="Rectangle" fill="#113A5D"></path>
        <path d="M133.393863,95.9175477 L134.100261,96.251524 L134.796311,96.5882382 L135.361664,96.8673546 L136.083349,97.2310515 L136.64657,97.5207091 L137.422293,97.9280929 L137.965853,98.2194369 L138.712838,98.6278138 L139.25698,98.9311847 L139.995832,99.3511455 C140.50938,99.646288 141.020056,99.946557 141.527937,100.251966 L142.402926,100.784916 L142.960873,101.131907 L143.675272,101.584435 L144.210051,101.929312 L144.923284,102.397545 L145.441145,102.743513 L146.145891,103.222549 C146.633671,103.557409 147.118717,103.897297 147.600891,104.242093 L148.465701,104.868022 L148.998113,105.260927 L149.638884,105.741558 L150.181972,106.155651 L150.794913,106.630533 C151.529175,107.204233 152.256186,107.789726 152.975615,108.38668 L154.233786,109.448976 L154.72056,109.869961 L155.374769,110.444742 L155.823004,110.844605 L156.528987,111.484559 L156.970585,111.89128 L157.514043,112.398729 C158.19922,113.04337 158.876256,113.698837 159.545,114.364947 L160.728881,115.564199 L161.14614,115.996617 L161.821366,116.707446 L162.237784,117.152778 L162.786302,117.747667 C163.41406,118.433952 164.033584,119.130123 164.644676,119.835951 L165.755496,121.140713 L166.676748,122.256849 C167.123854,122.806276 167.565883,123.360892 168.002897,123.92078 L168.002897,111 C168.002897,107.134007 171.136904,104 175.002897,104 L185,104 C188.865993,103.999971 192,107.133978 192,110.999971 C192,110.999981 192,110.99999 191.999971,111 L191.999,344.003967 L191.999,344.003967 L192.003483,344.661473 C192.233084,366.447771 203.784191,384 218,384 C220.327619,384 222.583799,383.529442 224.730542,382.646788 C225.173005,382.464866 225.610818,382.265437 226.043649,382.049014 L226.250055,381.939637 C226.250055,381.939637 226.250055,381.939637 226.250055,381.939637 C228.898307,380.46884 232.237456,381.423357 233.708252,384.071609 C233.798857,384.234748 233.881077,384.402403 233.954622,384.57391 L238.462789,395.092046 C239.891518,398.428181 238.533978,402.303116 235.334792,404.016672 C235.024865,404.182967 234.814543,404.291223 234.703827,404.341439 C229.480355,406.710601 223.857816,408 218,408 C190.386807,408 168.001693,379.348391 168,344.004009 L168,196 C168,189.23472 167.333521,182.656238 166.075053,176.353944 L165.945277,175.715158 L165.702193,174.573407 L165.491454,173.634263 L165.34468,173.004699 L165.128143,172.108855 L164.824097,170.909969 L164.520129,169.771702 L164.395068,169.319063 L164.136796,168.41058 C163.967598,167.826449 163.793178,167.24525 163.613603,166.667065 L163.340382,165.802057 L163.157054,165.237344 L162.813573,164.210584 L162.56032,163.47778 L162.393624,163.0059 L162.183892,162.423364 L161.99876,161.919019 L161.730151,161.202847 L161.581758,160.814746 C161.412084,160.37396 161.23932,159.935237 161.063499,159.498618 C160.789102,158.8172 160.507255,158.140891 160.218091,157.469859 L159.791647,156.495988 L159.528134,155.909309 L159.054271,154.881499 L158.782254,154.306447 L158.546294,153.816012 L158.030576,152.769911 L157.549102,151.823413 L156.988324,150.755209 L156.747139,150.306487 L156.431668,149.728834 L156.19851,149.308449 L155.842705,148.677285 L155.610145,148.271296 L155.288532,147.718098 L155.029842,147.279884 L154.676869,146.69135 C154.002402,145.576916 153.305667,144.483146 152.587447,143.410982 L151.928424,142.441976 L151.251888,141.476888 L150.644974,140.635413 L150.346773,140.230049 L149.91177,139.647968 L149.678108,139.33973 C149.388382,138.959421 149.095778,138.58232 148.800339,138.208478 L148.182627,137.436682 L147.556986,136.674529 L147.367295,136.447222 L146.867731,135.856774 L146.567069,135.50702 L146.159605,135.039596 L145.821773,134.657673 L145.134457,133.895982 C144.828855,133.561796 144.520778,133.230815 144.210261,132.903082 C144.003989,132.685377 143.79701,132.469486 143.58897,132.255036 L144.210261,132.903082 L143.794321,132.46754 L143.375503,132.035881 L142.565245,131.219914 L142.017902,130.682609 L141.714161,130.389152 L141.244128,129.941541 L140.911093,129.629102 L140.122226,128.904267 L139.715089,128.538393 L139.499987,128.347308 C138.883161,127.801532 138.258602,127.267613 137.626545,126.745831 L137.352661,126.520875 L136.838197,126.104444 L136.415362,125.768087 L135.970958,125.420227 L135.583491,125.1216 L135.095902,124.751897 L134.734918,124.482505 L134.193286,124.085091 L133.863775,123.847256 C133.564533,123.63261 133.263844,123.420569 132.96173,123.211158 L131.951909,122.524553 L131.417664,122.171957 L130.880599,121.824794 L130.336802,121.480631 L129.950094,121.240333 L129.372051,120.887945 L128.481262,120.360637 L127.646309,119.883407 L127.469532,119.784452 C126.991385,119.517774 126.51031,119.257384 126.026379,119.003372 L125.298351,118.627148 L124.980213,118.466431 L124.367656,118.16323 L123.993041,117.981826 L123.404971,117.703155 L123.020964,117.525172 L122.441515,117.262515 L122.008049,117.070642 L121.483703,116.843771 L121.069731,116.668671 L120.398247,116.39212 C119.970256,116.218781 119.540411,116.050272 119.108758,115.886648 L120.078588,116.263692 L119.497309,116.035441 L118.913808,115.813128 C118.557814,115.679564 118.200598,115.54932 117.842184,115.422427 L117.059191,115.151195 L116.265835,114.888495 L115.559333,114.664726 L114.735459,114.415773 L114.209005,114.263398 L113.426945,114.04662 L113.681012,114.115794 C113.201299,113.984051 112.719708,113.858222 112.236294,113.738374 L111.669091,113.600701 L111.166806,113.483688 L110.623589,113.362298 L110.138821,113.258474 L109.556754,113.139399 L109.149759,113.059745 L108.475182,112.934229 L108.091979,112.866529 L107.57869,112.779918 L107.064217,112.697769 L106.519357,112.615837 L106.168057,112.565768 C105.749364,112.507378 105.329543,112.453421 104.908629,112.403938 L105.973207,112.538926 C105.514344,112.476493 105.054136,112.419385 104.592627,112.367653 L103.869399,112.291098 L103.42884,112.248879 L102.779782,112.192749 L102.321199,112.157439 L101.711299,112.116038 L101.251129,112.088994 L100.601159,112.056921 L100.168154,112.039526 L99.3929593,112.0163 C98.9297282,112.00545 98.4653945,112 98,112 C59.3400675,112 28,149.608081 28,196 C28,242.391919 59.3400675,280 98,280 C107.732451,280 117.001,277.616564 125.422419,273.30957 L125.89873,273.06081 C126.024451,272.993893 126.165551,272.916717 126.322029,272.829281 C129.695966,270.941836 133.960879,272.14787 135.847537,275.522247 C135.921805,275.655079 135.991722,275.790298 136.057803,275.927388 L140.31915,284.876926 C141.90771,288.213373 140.628313,292.209664 137.397748,294.00378 C135.990519,294.784617 135.016578,295.305921 134.475927,295.567693 C123.260149,300.998146 110.935192,304 98,304 C56.587293,304 21.4294564,273.231164 8.89972993,230.505298 C6.02648769,224.508768 4,213.332179 4,196 C4,136.353247 46.0852335,88 98,88 C98.4641088,88 98.927432,88.0038644 99.3899466,88.0115668 L98,88 C98.5187648,88 99.0365481,88.0048282 99.5533177,88.0144476 L100.180444,88.0284845 L101.15598,88.0597248 L101.748708,88.0843114 L102.64767,88.129707 L103.303165,88.1689824 L103.998137,88.2163252 C104.632083,88.2621947 105.264152,88.3152654 105.894398,88.3754752 L106.953688,88.4835699 L107.615386,88.5581086 L108.455366,88.6605332 L109.07329,88.7414719 L110.017353,88.8743163 L110.618258,88.9646787 L111.402162,89.089378 L112.057797,89.1996213 L112.794912,89.3300648 L113.412409,89.4446551 L114.245595,89.6069878 L114.883038,89.7371938 L115.667758,89.9046737 L116.266044,90.0377201 L117.210647,90.2572651 L117.791518,90.3980682 L118.60058,90.6015837 L119.205658,90.7594477 L119.929195,90.95461 C120.511968,91.1146167 121.092737,91.2808914 121.671377,91.4533499 L122.696464,91.7660237 L123.321612,91.9637675 L124.101603,92.2180485 L124.730374,92.4291793 L125.437868,92.6733512 L126.079135,92.9007533 L126.832614,93.175395 C127.655082,93.4795971 128.472668,93.7964898 129.285134,94.1258493 L130.110921,94.4656334 L130.962987,94.8268353 L131.513746,95.0660932 L132.187352,95.3649476 L132.791904,95.6390484 L133.393863,95.9175477 Z" id="Path" fill="#F9F9F9"></path>
        <path d="M687,44 L696.611128,44 C700.47013,44 703.601234,47.1231047 703.611105,50.9820946 L703.948,182.689 L703.948,182.689 L704.003483,182.68963 L703.999,240.003967 L704.003483,240.661473 C704.233084,262.447771 715.784191,280 730,280 C732.327619,280 734.583799,279.529442 736.730542,278.646788 C737.173005,278.464866 737.610818,278.265437 738.043649,278.049014 C738.043649,278.049014 738.043649,278.049014 738.043649,278.049014 C740.972172,276.584703 744.533267,277.771681 745.997578,280.700203 C746.049493,280.804031 746.098348,280.909361 746.144122,281.016038 L750.467498,291.103033 C751.921329,294.495474 750.490545,298.433565 747.198144,300.10161 C747.003106,300.200489 746.838334,300.280432 746.703827,300.341439 C741.480355,302.710601 735.857816,304 730,304 C702.386807,304 680.001693,275.348391 680,240.004009 L680,51 C680,47.1340068 683.134007,44 687,44 Z" id="Path" fill="#F9F9F9"></path>
        <path d="M421,304 L411,304 C407.134007,304.000568 404,300.866561 404,297.000568 C404,297.000379 404,297.000189 404.000568,297 L404.003023,266.748654 L404.003023,266.748654 C386.792929,289.614369 361.806441,304 334,304 C282.085234,304 240,253.855892 240,192 L240,111 C240,107.134007 243.134007,104 247,104 L257,104 C260.865993,104 264,107.134007 264,111 L264,192 L264,192 C264,240.601058 295.340068,280 334,280 C372.659932,280 404,240.601058 404,192 L404,111 C404,107.134007 407.134007,104 411,104 L421,104 C424.865993,104 428,107.134007 428,111 L428,297 C428,300.865993 424.865993,304 421,304 Z" id="Path" fill="#F9F9F9"></path>
        <path d="M554,88 C604.132731,88 645.099168,133.090657 647.852539,189.899086 C647.852539,189.899086 647.852539,189.899086 647.852539,189.899086 C648.161168,196.266812 643.249299,201.679068 636.881572,201.987697 C636.695394,201.99672 636.509025,202.001233 636.322629,202.001221 L527,202.000073 C523.134035,201.999959 520.000073,198.865965 520,195 L520,185 C519.999997,181.134007 523.134004,178 526.999997,178 C526.999998,178 526.999999,178 527,178.000003 L622.389111,178.000046 L622.389111,178.000046 C615.522423,140.257839 587.5112,112 554,112 C515.340068,112 484,149.608081 484,196 C484,242.391919 515.340068,280 554,280 C563.732451,280 573.001,277.616564 581.422419,273.30957 C581.716458,273.159188 582.03384,272.990476 582.374565,272.803433 C585.763929,270.943833 590.018898,272.184494 591.878066,275.574095 C591.942571,275.691699 592.003682,275.811132 592.060339,275.932715 L596.336906,284.914216 C597.933581,288.268852 596.630798,292.286298 593.368265,294.063611 C592.251178,294.673596 591.287065,295.174957 590.475927,295.567693 C579.260149,300.998146 566.935192,304 554,304 C502.085234,304 460,255.646753 460,196 C460,136.353247 502.085234,88 554,88 Z" id="Path" fill="#F9F9F9"></path>
    </g>
</svg>