<?xml version="1.0" encoding="UTF-8"?>
<svg width="1024px" height="384px" viewBox="0 0 1024 384" version="1.1" xmlns="http://www.w3.org/2000/svg" xmlns:xlink="http://www.w3.org/1999/xlink">
    <title>light</title>
    <g id="light" stroke="none" stroke-width="1" fill="none" fill-rule="evenodd">
        <rect id="Rectangle" fill="#C4FFDD" x="106" y="280" width="708" height="24"></rect>
        <path d="M94,80 C145.914766,80 188,130.144108 188,192 C188,214.235613 182.561667,234.957808 173.183341,252.381326 C173.017416,252.68959 172.817387,253.053752 172.583253,253.473813 C171.792,254.887776 170.021417,255.419469 168.583059,254.673482 L152.668068,246.433912 C151.196882,245.671824 150.621848,243.861461 151.383775,242.390192 C151.399655,242.359529 151.416063,242.329142 151.432384,242.298704 C151.866057,241.52646 152.221054,240.876692 152.497376,240.349399 C159.768567,226.47411 164,209.858275 164,192 C164,143.398942 132.659932,104 94,104 C55.3400675,104 24,143.398942 24,192 C24,240.115047 54.7164002,279.211101 92.842422,279.988211 L94,280 L185,280 C186.656854,280 188,281.343146 188,283 L188,301 C188,302.656854 186.656854,304 185,304 L94,304 L94,304 C42.0852335,304 0,253.855892 0,192 C0,130.144108 42.0852335,80 94,80 Z" id="Path" fill="#062743"></path>
        <path d="M546,88 C597.914766,88 640,130.144108 640,192 C640,192 640,192 640,192 C640,198.627417 634.627417,204 628,204 L527,204 C525.343146,204 524,202.656854 524,201 L524,183 C524.000005,181.343148 525.343148,180.000003 527,179.999995 L615.354592,179.999855 L615.354592,179.999855 C610.698969,137.075709 581.422025,112 546,112 C507.340068,112 476,143.398942 476,192 C476,240.601058 507.340068,280 546,280 L575,280 C576.656854,280 578,281.343146 578,283 L578,301 C578,302.656854 576.656854,304 575,304 L546,304 L546,304 C494.085234,304 452,253.855892 452,192 C452,130.144108 494.085234,88 546,88 Z" id="Path" fill="#062743"></path>
        <path d="M413,304 L395,304 C393.343146,304.000243 392,302.657098 392,301.000243 C392,301.000162 392,301.000081 392.000243,301 L392.003023,266.748654 L392.003023,266.748654 C374.792929,289.614369 349.806441,304 322,304 C270.085234,304 228,253.855892 228,192 L228,99 C228,97.3431458 229.343146,96 231,96 L249,96 C250.656854,96 252,97.3431458 252,99 L252,192 L252,192 C252,240.601058 283.340068,280 322,280 C360.659932,280 392,240.601058 392,192 L392,99 C392,97.3431458 393.343146,96 395,96 L413,96 C414.656854,96 416,97.3431458 416,99 L416,301 C416,302.656854 414.656854,304 413,304 Z" id="Path" fill="#062743"></path>
        <path d="M675,80 L693,80 C694.656854,80 696,81.3431458 696,83 L696,192 L696,192 C696,239.693051 726.179962,278.524618 763.840987,279.95894 C763.840987,279.95894 763.840987,279.95894 763.840987,279.95894 C765.046465,280.004851 766.00004,280.995435 766,282.201786 L766,302.445466 C766,303.295764 765.310697,303.985067 764.460399,303.985067 C764.455445,303.985067 764.450492,303.985043 764.445538,303.984995 L764.445538,303.984995 L764.445538,303.984995 C713.247737,302.995947 672,253.237333 672,192 L672,83 C672,81.3431458 673.343146,80 675,80 Z" id="Path" fill="#062743"></path>
    </g>
</svg>