<?xml version="1.0" encoding="UTF-8"?>
<svg width="1024px" height="384px" viewBox="0 0 1024 384" version="1.1" xmlns="http://www.w3.org/2000/svg" xmlns:xlink="http://www.w3.org/1999/xlink">
    <title>light</title>
    <g id="light" stroke="none" stroke-width="1" fill="none" fill-rule="evenodd">
        <rect id="Rectangle" fill="#C4FFDD" x="211" y="274" width="708" height="24"></rect>
        <path d="M199,74 C250.914766,74 293,124.144108 293,186 C293,208.235613 287.561667,228.957808 278.183341,246.381326 C278.017416,246.68959 277.817387,247.053752 277.583253,247.473813 C276.792,248.887776 275.021417,249.419469 273.583059,248.673482 L257.668068,240.433912 C256.196882,239.671824 255.621848,237.861461 256.383775,236.390192 C256.399655,236.359529 256.416063,236.329142 256.432384,236.298704 C256.866057,235.52646 257.221054,234.876692 257.497376,234.349399 C264.768567,220.47411 269,203.858275 269,186 C269,137.398942 237.659932,98 199,98 C160.340068,98 129,137.398942 129,186 C129,234.115047 159.7164,273.211101 197.842422,273.988211 L199,274 L290,274 C291.656854,274 293,275.343146 293,277 L293,295 C293,296.656854 291.656854,298 290,298 L199,298 L199,298 C147.085234,298 105,247.855892 105,186 C105,124.144108 147.085234,74 199,74 Z" id="Path" fill="#062743"></path>
        <path d="M651,82 C702.914766,82 745,124.144108 745,186 C745,186 745,186 745,186 C745,192.627417 739.627417,198 733,198 L632,198 C630.343146,198 629,196.656854 629,195 L629,177 C629.000005,175.343148 630.343148,174.000003 632,173.999995 L720.354592,173.999855 L720.354592,173.999855 C715.698969,131.075709 686.422025,106 651,106 C612.340068,106 581,137.398942 581,186 C581,234.601058 612.340068,274 651,274 L680,274 C681.656854,274 683,275.343146 683,277 L683,295 C683,296.656854 681.656854,298 680,298 L651,298 L651,298 C599.085234,298 557,247.855892 557,186 C557,124.144108 599.085234,82 651,82 Z" id="Path" fill="#062743"></path>
        <path d="M518,298 L500,298 C498.343146,298.000243 497,296.657098 497,295.000243 C497,295.000162 497,295.000081 497.000243,295 L497.003023,260.748654 L497.003023,260.748654 C479.792929,283.614369 454.806441,298 427,298 C375.085234,298 333,247.855892 333,186 L333,93 C333,91.3431458 334.343146,90 336,90 L354,90 C355.656854,90 357,91.3431458 357,93 L357,186 L357,186 C357,234.601058 388.340068,274 427,274 C465.659932,274 497,234.601058 497,186 L497,93 C497,91.3431458 498.343146,90 500,90 L518,90 C519.656854,90 521,91.3431458 521,93 L521,295 C521,296.656854 519.656854,298 518,298 Z" id="Path" fill="#062743"></path>
        <path d="M780,74 L798,74 C799.656854,74 801,75.3431458 801,77 L801,186 L801,186 C801,233.693051 831.179962,272.524618 868.840987,273.95894 C868.840987,273.95894 868.840987,273.95894 868.840987,273.95894 C870.046465,274.004851 871.00004,274.995435 871,276.201786 L871,296.445466 C871,297.295764 870.310697,297.985067 869.460399,297.985067 C869.455445,297.985067 869.450492,297.985043 869.445538,297.984995 L869.445538,297.984995 L869.445538,297.984995 C818.247737,296.995947 777,247.237333 777,186 L777,77 C777,75.3431458 778.343146,74 780,74 Z" id="Path" fill="#062743"></path>
    </g>
</svg>